<svg width="30" height="30" viewBox="0 0 30 30" fill="none" xmlns="http://www.w3.org/2000/svg">
<g id="bxl:tiktok">
<path id="Vector" d="M24.4877 8.3625C23.2416 8.08849 22.1144 7.42679 21.2678 6.47237C20.4211 5.51794 19.8986 4.31984 19.7752 3.05V2.5H15.4627V19.5875C15.4636 20.3457 15.2259 21.085 14.7832 21.7006C14.3406 22.3162 13.7155 22.7769 12.9965 23.0175C12.2775 23.2581 11.501 23.2663 10.777 23.0411C10.0531 22.8159 9.4183 22.3685 8.96268 21.7625C8.55449 21.2261 8.30454 20.5861 8.24109 19.915C8.17765 19.2439 8.30323 18.5684 8.60365 17.965C8.90408 17.3616 9.36734 16.8542 9.94107 16.5003C10.5148 16.1464 11.1761 15.9601 11.8502 15.9625C12.223 15.9604 12.5939 16.0152 12.9502 16.125V11.75C12.5356 11.6987 12.1178 11.6778 11.7002 11.6875C10.1618 11.7286 8.66883 12.2174 7.40404 13.0941C6.13924 13.9708 5.15754 15.1972 4.57915 16.6233C4.00076 18.0494 3.85078 19.6132 4.14758 21.1232C4.44438 22.6332 5.17507 24.0239 6.25018 25.125C7.35204 26.2453 8.76205 27.0127 10.301 27.3297C11.84 27.6468 13.4386 27.4992 14.8935 26.9057C16.3484 26.3122 17.5941 25.2996 18.4722 23.9966C19.3503 22.6935 19.8213 21.1588 19.8252 19.5875V10.8375C21.5645 12.0799 23.6502 12.7446 25.7877 12.7375V8.4875C25.3678 8.48923 24.9489 8.44734 24.5377 8.3625H24.4877Z" fill="white" fill-opacity="0.6"/>
</g>
</svg>
