<svg width="30" height="30" viewBox="0 0 30 30" fill="none" xmlns="http://www.w3.org/2000/svg">
<g id="akar-icons:twitter-fill">
<path id="Vector" d="M29.5534 6.17122C28.5096 6.63372 27.3884 6.94622 26.2096 7.08747C27.4259 6.35971 28.3358 5.21431 28.7696 3.86497C27.627 4.54371 26.3763 5.02147 25.0721 5.27747C24.1951 4.34106 23.0335 3.72038 21.7676 3.51182C20.5016 3.30325 19.2023 3.51846 18.0712 4.12404C16.9401 4.72962 16.0406 5.69168 15.5123 6.86085C14.9841 8.03003 14.8566 9.34091 15.1496 10.59C12.8343 10.4737 10.5692 9.87191 8.50143 8.82361C6.43367 7.7753 4.60945 6.30393 3.14715 4.50497C2.64715 5.36747 2.35965 6.36747 2.35965 7.43247C2.35909 8.39122 2.59519 9.33528 3.047 10.1809C3.4988 11.0265 4.15235 11.7475 4.94965 12.28C4.02499 12.2506 3.12074 12.0007 2.31215 11.5512V11.6262C2.31206 12.9709 2.77719 14.2742 3.62863 15.315C4.48006 16.3557 5.66536 17.0699 6.9834 17.3362C6.12563 17.5684 5.22632 17.6026 4.3534 17.4362C4.72527 18.5932 5.44964 19.605 6.42511 20.3299C7.40057 21.0548 8.57829 21.4564 9.7934 21.4787C7.73069 23.098 5.18326 23.9763 2.5609 23.9725C2.09637 23.9726 1.63224 23.9455 1.1709 23.8912C3.83274 25.6027 6.93132 26.511 10.0959 26.5075C20.8084 26.5075 26.6646 17.635 26.6646 9.93997C26.6646 9.68997 26.6584 9.43747 26.6471 9.18747C27.7863 8.36369 28.7695 7.34359 29.5509 6.17497L29.5534 6.17122Z" fill="white" fill-opacity="0.6"/>
</g>
</svg>
