<svg width="30" height="30" viewBox="0 0 30 30" fill="none" xmlns="http://www.w3.org/2000/svg">
<g id="akar-icons:youtube-fill" clip-path="url(#clip0_34_1024)">
<g id="Group">
<g id="Group_2">
<path id="Vector" d="M29.3748 8.13372C29.2049 7.52776 28.874 6.97915 28.4173 6.54622C27.9477 6.09998 27.372 5.78077 26.7448 5.61872C24.3973 4.99997 14.9923 4.99997 14.9923 4.99997C11.0715 4.95536 7.15158 5.15157 3.2548 5.58747C2.62753 5.76149 2.053 6.08783 1.58229 6.53747C1.11979 6.98247 0.784795 7.53122 0.609795 8.13247C0.189411 10.3972 -0.0148401 12.6967 -0.000205083 15C-0.0152051 17.3012 0.188545 19.6 0.609795 21.8675C0.781045 22.4662 1.11479 23.0125 1.57854 23.4537C2.04229 23.895 2.6198 24.2137 3.2548 24.3825C5.63354 25 14.9923 25 14.9923 25C18.9181 25.0446 22.843 24.8484 26.7448 24.4125C27.372 24.2504 27.9477 23.9312 28.4173 23.485C28.8739 23.0521 29.2044 22.5034 29.3735 21.8975C29.8049 19.6337 30.0146 17.3332 29.9998 15.0287C30.0322 12.7145 29.8228 10.4032 29.3748 8.13247V8.13372ZM12.0023 19.28V10.7212L19.8273 15.0012L12.0023 19.28Z" fill="white" fill-opacity="0.6"/>
</g>
</g>
</g>
<defs>
<clipPath id="clip0_34_1024">
<rect width="30" height="30" fill="white"/>
</clipPath>
</defs>
</svg>
